<svg width="51" height="29" viewBox="0 0 51 29" fill="none" xmlns="http://www.w3.org/2000/svg">
<mask id="mask0" mask-type="alpha" maskUnits="userSpaceOnUse" x="0" y="0" width="51" height="29">
<path fill-rule="evenodd" clip-rule="evenodd" d="M0.0490417 0.193298H50.6988V28.1829H0.0490417V0.193298Z" fill="white"/>
</mask>
<g mask="url(#mask0)">
<path fill-rule="evenodd" clip-rule="evenodd" d="M8.6951 9.99208C6.64634 9.42868 4.61378 8.25004 4.68254 5.94244C4.07738 6.5098 3.92618 7.07716 3.92618 7.72012C3.92618 9.6256 5.6351 10.7553 8.28434 11.4731C8.39198 10.9637 8.5295 10.4702 8.6951 9.99208ZM8.0957 12.6226C8.03666 13.1216 8.00498 13.6349 8.00102 14.162C4.04246 13.2839 1.20818 11.6085 1.20818 7.98508C1.20818 1.59256 8.54606 0.193237 15.3166 0.193237C23.6002 0.193237 25.6428 2.46268 26.3614 3.14344L26.172 1.93312C26.0586 1.25236 26.0586 0.722797 26.5504 0.722797C26.7772 0.722797 27.0418 0.911797 27.1933 1.78192L28.3281 8.17408C28.4796 9.082 27.7229 8.93044 27.5339 8.28748C26.0586 3.33244 22.8435 1.70596 15.3166 1.70596C9.11342 1.70596 2.83466 2.80288 2.83466 7.94728C2.83466 10.4601 5.16962 11.8292 8.0957 12.6226ZM0.900382 18.8027C1.58114 22.3581 3.66158 26.6702 15.1978 26.6702C15.7579 26.6702 16.3059 26.6604 16.8405 26.6414C17.9233 27.1248 19.0779 27.537 20.2882 27.8801C18.7593 28.0839 17.082 28.1829 15.2734 28.1829C7.9733 28.1829 4.19114 26.7836 2.0351 24.7787C2.2997 25.8756 2.1107 26.4808 1.8083 26.519C1.35398 26.5946 1.12718 25.9894 1.01378 25.2705L0.0680617 18.9539C-0.0831383 17.9326 0.711022 17.857 0.900382 18.8027ZM29.2792 19.8996C29.2792 15.6254 24.5905 14.5904 19.71 13.9611C18.3118 13.7811 14.8497 13.6796 12.5453 13.3858C12.5406 13.5266 12.5381 13.668 12.5381 13.8099C12.5381 14.1526 12.5525 14.486 12.5802 14.8103C13.1814 14.8744 13.7931 14.9306 14.4097 14.9824C20.6885 15.5112 28.0311 15.8903 28.0311 20.845C28.0311 21.4883 27.9177 22.3203 27.6531 23.1148C28.9008 22.0935 29.2792 21.0722 29.2792 19.8996ZM44.9874 20.656C44.9874 17.7436 45.8197 16.3443 49.7531 16.3443C50.3961 16.3443 50.6988 16.3065 50.6988 15.9281C50.6988 15.6254 50.4339 15.5876 49.9803 15.5876C44.8359 15.5876 43.1716 16.4195 43.1716 20.7316V22.7742C43.1716 25.3461 42.6046 25.8378 41.6207 26.519C43.5121 25.9134 44.9874 25.1193 44.9874 22.5096V20.656Z" fill="#818181"/>
</g>
<mask id="mask1" mask-type="alpha" maskUnits="userSpaceOnUse" x="9" y="0" width="36" height="29">
<path fill-rule="evenodd" clip-rule="evenodd" d="M9.02057 0.193298H44.8359V28.1832H9.02057V0.193298Z" fill="white"/>
</mask>
<g mask="url(#mask1)">
<path fill-rule="evenodd" clip-rule="evenodd" d="M31.068 0.193176C29.9034 0.193176 28.7921 0.243936 27.7352 0.342216C27.9224 0.605376 28.0858 0.994176 28.1898 1.56802L28.2406 1.8553C29.1334 1.78258 30.0744 1.74406 31.068 1.74406C39.8434 1.74406 43.7015 4.54306 43.9283 8.36302C43.9661 9.30874 44.0417 9.6115 44.4201 9.6115C44.6847 9.6115 44.8359 9.42214 44.8359 8.32522V2.15986C44.8359 1.55506 44.7603 1.13854 44.4201 1.13854C44.1555 1.13854 43.9661 1.47946 43.9661 1.93306C43.9283 2.76538 43.8527 3.40834 43.739 3.82414C43.2098 3.10558 39.919 0.193176 31.068 0.193176ZM30.6184 28.1832C19.3842 28.1832 9.02057 24.0223 9.02057 14.2638C9.02057 8.74138 12.3491 4.92106 17.3798 2.65198C13.2948 5.45062 11.1388 9.42214 11.1388 13.8098C11.1388 23.8333 22.1454 26.5945 30.505 26.5945C35.6865 26.5945 40.0364 25.4976 40.0364 23.3415V20.6559C40.0364 17.8191 39.4312 16.3442 35.3081 16.3442C34.9679 16.3442 34.3628 16.3064 34.3628 15.9281C34.3628 15.6635 34.6277 15.5875 35.0435 15.5875C40.7171 15.5875 41.89 16.4198 41.89 20.7315V23.6443C41.89 26.5945 37.0106 28.1832 30.6184 28.1832ZM29.0387 25.445C28.1917 25.3734 27.3359 25.2701 26.4849 25.1311C28.9174 24.0273 30.3333 22.2759 30.3333 19.7106C30.3333 13.6586 22.239 12.9753 17.3214 12.5617C16.4117 12.4854 15.5236 12.4026 14.6697 12.3057C13.9997 12.2449 13.2952 12.1743 12.5802 12.0883C12.9219 8.07754 15.0027 5.05282 18.8338 2.88382C19.8544 2.98966 20.754 3.15166 21.5457 3.37918C17.6829 5.0287 15.6291 7.55662 14.9102 10.7624C15.362 10.8132 15.8022 10.8575 16.2249 10.8974C23.3734 11.5771 31.9598 12.3349 31.9598 19.6724C31.9598 22.1744 30.9255 24.0788 29.0387 25.445ZM12.7109 15.887C13.2999 18.8505 15.1337 21.1949 18.6239 23.0766C16.6421 21.3083 15.2255 18.9251 14.751 16.0659L14.435 16.0397L13.9468 15.9986C13.5324 15.9637 13.1202 15.927 12.7109 15.887Z" fill="#B98557"/>
</g>
</svg>
