<svg width="178" height="29" viewBox="0 0 178 29" fill="none" xmlns="http://www.w3.org/2000/svg">
<mask id="mask0" mask-type="alpha" maskUnits="userSpaceOnUse" x="0" y="0" width="51" height="29">
<path fill-rule="evenodd" clip-rule="evenodd" d="M0.0490417 0.193314H50.6988V28.1829H0.0490417V0.193314Z" fill="white"/>
</mask>
<g mask="url(#mask0)">
<path fill-rule="evenodd" clip-rule="evenodd" d="M8.6951 9.99209C6.64634 9.42869 4.61378 8.25005 4.68254 5.94245C4.07738 6.50981 3.92618 7.07717 3.92618 7.72013C3.92618 9.62561 5.6351 10.7553 8.28434 11.4731C8.39198 10.9637 8.5295 10.4702 8.6951 9.99209ZM8.0957 12.6226C8.03666 13.1216 8.00498 13.6349 8.00102 14.162C4.04246 13.2839 1.20818 11.6085 1.20818 7.98509C1.20818 1.59257 8.54606 0.193253 15.3166 0.193253C23.6002 0.193253 25.6428 2.46269 26.3614 3.14345L26.172 1.93313C26.0586 1.25237 26.0586 0.722813 26.5504 0.722813C26.7772 0.722813 27.0418 0.911813 27.1933 1.78193L28.3281 8.17409C28.4796 9.08201 27.7229 8.93045 27.5339 8.28749C26.0586 3.33245 22.8435 1.70597 15.3166 1.70597C9.11342 1.70597 2.83466 2.80289 2.83466 7.94729C2.83466 10.4601 5.16962 11.8292 8.0957 12.6226ZM0.900382 18.8027C1.58114 22.3581 3.66158 26.6702 15.1978 26.6702C15.7579 26.6702 16.3059 26.6605 16.8405 26.6414C17.9233 27.1249 19.0779 27.5371 20.2882 27.8801C18.7593 28.0839 17.082 28.1829 15.2734 28.1829C7.9733 28.1829 4.19114 26.7836 2.0351 24.7787C2.2997 25.8757 2.1107 26.4808 1.8083 26.519C1.35398 26.5946 1.12718 25.9894 1.01378 25.2705L0.0680617 18.9539C-0.0831383 17.9326 0.711022 17.857 0.900382 18.8027ZM29.2792 19.8997C29.2792 15.6254 24.5905 14.5904 19.71 13.9611C18.3118 13.7811 14.8497 13.6796 12.5453 13.3858C12.5406 13.5266 12.5381 13.6681 12.5381 13.8099C12.5381 14.1526 12.5525 14.486 12.5802 14.8103C13.1814 14.8744 13.7931 14.9306 14.4097 14.9824C20.6885 15.5113 28.0311 15.8903 28.0311 20.845C28.0311 21.4883 27.9177 22.3203 27.6531 23.1148C28.9008 22.0935 29.2792 21.0722 29.2792 19.8997ZM44.9874 20.656C44.9874 17.7436 45.8197 16.3443 49.7531 16.3443C50.3961 16.3443 50.6988 16.3065 50.6988 15.9281C50.6988 15.6254 50.4339 15.5876 49.9803 15.5876C44.8359 15.5876 43.1716 16.4195 43.1716 20.7316V22.7743C43.1716 25.3461 42.6046 25.8379 41.6207 26.519C43.5121 25.9135 44.9874 25.1193 44.9874 22.5097V20.656Z" fill="#818181"/>
</g>
<mask id="mask1" mask-type="alpha" maskUnits="userSpaceOnUse" x="9" y="0" width="36" height="29">
<path fill-rule="evenodd" clip-rule="evenodd" d="M9.02057 0.193314H44.8359V28.1832H9.02057V0.193314Z" fill="white"/>
</mask>
<g mask="url(#mask1)">
<path fill-rule="evenodd" clip-rule="evenodd" d="M31.068 0.193176C29.9034 0.193176 28.7921 0.243936 27.7352 0.342216C27.9224 0.605376 28.0858 0.994176 28.1898 1.56802L28.2406 1.8553C29.1334 1.78258 30.0744 1.74406 31.068 1.74406C39.8434 1.74406 43.7015 4.54306 43.9283 8.36302C43.9661 9.30874 44.0417 9.6115 44.4201 9.6115C44.6847 9.6115 44.8359 9.42214 44.8359 8.32522V2.15986C44.8359 1.55506 44.7603 1.13854 44.4201 1.13854C44.1555 1.13854 43.9661 1.47946 43.9661 1.93306C43.9283 2.76538 43.8527 3.40834 43.739 3.82414C43.2098 3.10558 39.919 0.193176 31.068 0.193176ZM30.6184 28.1832C19.3842 28.1832 9.02057 24.0223 9.02057 14.2638C9.02057 8.74138 12.3491 4.92106 17.3798 2.65198C13.2948 5.45062 11.1388 9.42214 11.1388 13.8098C11.1388 23.8333 22.1454 26.5945 30.505 26.5945C35.6865 26.5945 40.0364 25.4976 40.0364 23.3415V20.6559C40.0364 17.8191 39.4312 16.3442 35.3081 16.3442C34.9679 16.3442 34.3628 16.3064 34.3628 15.9281C34.3628 15.6635 34.6277 15.5875 35.0435 15.5875C40.7171 15.5875 41.89 16.4198 41.89 20.7315V23.6443C41.89 26.5945 37.0106 28.1832 30.6184 28.1832ZM29.0387 25.445C28.1917 25.3734 27.3359 25.2701 26.4849 25.1311C28.9174 24.0273 30.3333 22.2759 30.3333 19.7106C30.3333 13.6586 22.239 12.9753 17.3214 12.5617C16.4117 12.4854 15.5236 12.4026 14.6697 12.3057C13.9997 12.2449 13.2952 12.1743 12.5802 12.0883C12.9219 8.07754 15.0027 5.05282 18.8338 2.88382C19.8544 2.98966 20.754 3.15166 21.5457 3.37918C17.6829 5.0287 15.6291 7.55662 14.9102 10.7624C15.362 10.8132 15.8022 10.8575 16.2249 10.8974C23.3734 11.5771 31.9598 12.3349 31.9598 19.6724C31.9598 22.1744 30.9255 24.0788 29.0387 25.445ZM12.7109 15.887C13.2999 18.8505 15.1337 21.1949 18.6239 23.0766C16.6421 21.3083 15.2255 18.9251 14.751 16.0659L14.435 16.0397L13.9468 15.9986C13.5324 15.9637 13.1202 15.927 12.7109 15.887Z" fill="#B98557"/>
</g>
<mask id="mask2" mask-type="alpha" maskUnits="userSpaceOnUse" x="66" y="9" width="112" height="11">
<path fill-rule="evenodd" clip-rule="evenodd" d="M66 9H177.132V19.0449H66V9Z" fill="white"/>
</mask>
<g mask="url(#mask2)">
<path fill-rule="evenodd" clip-rule="evenodd" d="M173.89 13.7466C174.488 13.7466 174.962 13.6084 175.311 13.3326C175.661 13.0568 175.835 12.6247 175.835 12.0357C175.835 11.4192 175.654 10.9805 175.29 10.7181C174.927 10.4562 174.442 10.3248 173.835 10.3248H171.613V13.7466H173.89ZM173.918 9.1935C174.939 9.1935 175.73 9.4509 176.291 9.96615C176.852 10.4809 177.133 11.1852 177.133 12.0771C177.133 12.951 176.859 13.6319 176.312 14.1192C175.764 14.607 174.975 14.8505 173.945 14.8505H171.613V18.8523H170.371V9.1935H173.918ZM160.437 9.1935H161.678V14.9746C161.678 16.0141 161.908 16.7548 162.368 17.1963C162.828 17.6377 163.426 17.8587 164.162 17.8587C164.898 17.8587 165.496 17.6377 165.956 17.1963C166.416 16.7548 166.646 16.0141 166.646 14.9746V9.1935H167.887V15.1128C167.887 15.9867 167.725 16.718 167.398 17.3066C167.072 17.8956 166.627 18.3321 166.066 18.6174C165.505 18.9027 164.87 19.0449 164.162 19.0449C163.454 19.0449 162.819 18.9027 162.258 18.6174C161.697 18.3321 161.253 17.8956 160.926 17.3066C160.6 16.718 160.437 15.9867 160.437 15.1128V9.1935ZM149.701 14.0224C149.701 14.7866 149.86 15.458 150.178 16.0375C150.495 16.6167 150.934 17.0653 151.495 17.3826C152.056 17.6999 152.691 17.8587 153.399 17.8587C154.108 17.8587 154.742 17.6999 155.303 17.3826C155.864 17.0653 156.304 16.6167 156.621 16.0375C156.939 15.458 157.097 14.7866 157.097 14.0224C157.097 13.2593 156.939 12.5879 156.621 12.0082C156.304 11.4286 155.864 10.9805 155.303 10.6628C154.742 10.3451 154.108 10.1867 153.399 10.1867C152.691 10.1867 152.056 10.3451 151.495 10.6628C150.934 10.9805 150.495 11.4286 150.178 12.0082C149.86 12.5879 149.701 13.2593 149.701 14.0224ZM148.404 14.0224C148.404 13.0203 148.62 12.1392 149.053 11.38C149.485 10.6213 150.081 10.035 150.84 9.621C151.599 9.207 152.452 9 153.399 9C154.347 9 155.2 9.207 155.959 9.621C156.718 10.035 157.313 10.6213 157.746 11.38C158.178 12.1392 158.394 13.0203 158.394 14.0224C158.394 15.0255 158.178 15.9062 157.746 16.6649C157.313 17.424 156.718 18.0108 155.959 18.4248C155.2 18.8384 154.347 19.0449 153.399 19.0449C152.452 19.0449 151.599 18.8384 150.84 18.4248C150.081 18.0108 149.485 17.424 149.053 16.6649C148.62 15.9062 148.404 15.0255 148.404 14.0224ZM141.284 13.4707H143.74L143.782 13.9676H143.795L143.74 13.4707C144.375 13.4707 144.847 13.3376 145.155 13.0707C145.463 12.8038 145.617 12.4173 145.617 11.9115C145.617 11.4147 145.46 11.0259 145.148 10.7456C144.835 10.4652 144.348 10.3248 143.685 10.3248H141.284V13.4707ZM142.844 14.63H141.284V18.8523H140.042V9.1935H143.713C144.752 9.1935 145.546 9.4347 146.093 9.91755C146.64 10.4004 146.914 11.0561 146.914 11.8836C146.914 12.6477 146.677 13.2687 146.204 13.7466C145.73 14.225 145.061 14.4963 144.196 14.5611L147.107 18.8523H145.658L142.844 14.63ZM137.779 13.5675V18.8523H135.075C133.355 18.8523 132.007 18.4405 131.032 17.6175C130.057 16.7936 129.57 15.5956 129.57 14.0224C129.57 12.9834 129.783 12.0843 130.211 11.3252C130.639 10.5664 131.225 9.98865 131.97 9.59355C132.715 9.198 133.552 9 134.482 9C135.641 9 136.643 9.31725 137.49 9.95175V11.3872H137.324C136.496 10.5871 135.526 10.1867 134.412 10.1867C133.714 10.1867 133.095 10.345 132.557 10.6628C132.018 10.9805 131.602 11.4286 131.308 12.0082C131.014 12.5879 130.866 13.2593 130.866 14.0224C130.866 15.2001 131.221 16.1014 131.929 16.727C132.637 17.3529 133.672 17.6657 135.033 17.6657H136.593V14.6714H134.178V13.5675H137.779ZM121.966 14.5058V18.8523H120.724V14.5058L117.151 9.1935H118.613L121.36 13.3326L124.092 9.1935H125.541L121.966 14.5058ZM116.323 10.3248H113.604V18.8523H112.363V10.3248H109.644V9.1935H116.323V10.3248ZM106.581 18.8523H107.823V9.1935H106.581V18.8523ZM99.213 17.7206C100.409 17.7206 101.361 17.4123 102.069 16.7958C102.777 16.1798 103.132 15.2555 103.132 14.0224C103.132 12.7899 102.777 11.8651 102.069 11.2491C101.361 10.633 100.409 10.3248 99.213 10.3248H97.8468V17.7206H99.213ZM99.3507 9.1935C100.372 9.1935 101.264 9.37935 102.028 9.75195C102.791 10.1245 103.382 10.6718 103.801 11.394C104.22 12.1163 104.429 12.9924 104.429 14.0224C104.429 15.0529 104.22 15.9296 103.801 16.6514C103.382 17.3736 102.791 17.9204 102.028 18.2934C101.264 18.666 100.372 18.8523 99.3507 18.8523H96.6048V9.1935H99.3507ZM92.769 18.8523H94.011V9.1935H92.769V18.8523ZM91.0027 17.7205V18.8523H85.7868V9.1935H87.0288V17.7205H91.0027ZM74.9413 14.0224C74.9413 14.7866 75.1002 15.458 75.4174 16.0375C75.7347 16.6167 76.1739 17.0653 76.735 17.3826C77.2962 17.6999 77.9311 17.8587 78.6394 17.8587C79.3477 17.8587 79.9822 17.6999 80.5434 17.3826C81.1045 17.0653 81.5442 16.6167 81.8614 16.0375C82.1787 15.458 82.3375 14.7866 82.3375 14.0224C82.3375 13.2593 82.1787 12.5879 81.8614 12.0082C81.5442 11.4286 81.1045 10.9805 80.5434 10.6628C79.9822 10.3451 79.3477 10.1867 78.6394 10.1867C77.9311 10.1867 77.2962 10.3451 76.735 10.6628C76.1739 10.9805 75.7347 11.4286 75.4174 12.0082C75.1002 12.5879 74.9413 13.2593 74.9413 14.0224ZM73.6444 14.0224C73.6444 13.0203 73.8604 12.1392 74.2929 11.38C74.7253 10.6213 75.3211 10.035 76.0798 9.621C76.8385 9.207 77.6917 9 78.6394 9C79.5871 9 80.4399 9.207 81.199 9.621C81.9577 10.035 82.5535 10.6213 82.986 11.38C83.418 12.1392 83.6344 13.0203 83.6344 14.0224C83.6344 15.0255 83.418 15.9062 82.986 16.6649C82.5535 17.424 81.9577 18.0108 81.199 18.4248C80.4399 18.8384 79.5871 19.0449 78.6394 19.0449C77.6917 19.0449 76.8385 18.8384 76.0798 18.4248C75.3211 18.0108 74.7253 17.424 74.2929 16.6649C73.8604 15.9062 73.6444 15.0255 73.6444 14.0224ZM65.9998 16.7134H66.1654C67.0303 17.4951 67.9501 17.8862 68.9253 17.8862C69.5967 17.8862 70.0957 17.7462 70.4224 17.4654C70.7491 17.1851 70.9125 16.8237 70.9125 16.3818C70.9125 16.0511 70.8247 15.7568 70.6501 15.4994C70.4751 15.2415 70.2177 15.039 69.8775 14.8918L68.0424 14.1057C67.4259 13.8389 66.961 13.4735 66.6487 13.0086C66.3355 12.5438 66.1794 12.0123 66.1794 11.4147C66.1794 10.5872 66.4507 9.9774 66.9934 9.5868C67.5361 9.19575 68.2309 9 69.0774 9C70.0336 9 70.8706 9.2115 71.5884 9.6345V11.0007H71.4228C70.6686 10.4395 69.8865 10.1588 69.0774 10.1588C68.5432 10.1588 68.1432 10.274 67.8768 10.5039C67.6099 10.7343 67.4763 11.0421 67.4763 11.4286C67.4763 12.137 67.9087 12.6752 68.7736 13.0433L70.5813 13.8155C71.1883 14.0733 71.6113 14.4342 71.8507 14.8991C72.0897 15.3635 72.2094 15.8535 72.2094 16.3683C72.2094 17.2611 71.9101 17.9298 71.3125 18.3762C70.7145 18.8221 69.9049 19.0449 68.8839 19.0449C68.2953 19.0449 67.7706 18.9788 67.3111 18.8451C66.8508 18.7119 66.4138 18.5206 65.9998 18.2727V16.7134Z" fill="#151616"/>
</g>
</svg>
